<?xml version="1.0" encoding="UTF-8"?>
<svg width="180px" height="45px" viewBox="0 0 180 45" version="1.1" xmlns="http://www.w3.org/2000/svg" xmlns:xlink="http://www.w3.org/1999/xlink">
    <!-- Generator: Sketch 60 (88103) - https://sketch.com -->
    <title>Logo/Group</title>
    <desc>Created with Sketch.</desc>
    <defs>
        <rect id="path-1" x="0" y="0" width="180" height="44.5544554"></rect>
    </defs>
    <g id="Page-1" stroke="none" stroke-width="1" fill="none" fill-rule="evenodd">
        <g id="Menu" transform="translate(-25.000000, -19.000000)">
            <g id="Logo/Group" transform="translate(25.000000, 19.000000)">
                <g>
                    <mask id="mask-2" fill="white">
                        <use xlink:href="#path-1"></use>
                    </mask>
                    <g id="Rectangle_1"></g>
                    <g id="Group_1" mask="url(#mask-2)" fill-rule="nonzero">
                        <path d="M133.760317,43.7630835 C132.763121,44.1009458 131.71896,44.2826384 130.665386,44.3016266 C129.288832,44.3016266 128.195644,43.9232673 127.477782,43.1516973 C126.766747,42.3453761 126.441843,41.2734515 126.586693,40.2118105 C126.728421,38.4572415 127.588835,36.836974 128.967327,35.7287836 C130.224631,34.7745972 131.768616,34.2671333 133.351485,34.2878359 C134.200934,34.2513541 135.047726,34.4055887 135.828713,34.7390382 L135.174653,36.1647808 C134.520985,35.8739435 133.809092,35.7347506 133.093069,35.7577793 C132.055961,35.7470064 131.045867,36.0857278 130.22804,36.718529 C129.211081,37.5592494 128.579373,38.771709 128.476158,40.080976 C128.326099,41.8419378 129.216119,42.8606789 131.08099,42.8606789 C131.521317,42.864546 131.958826,42.7906699 132.373069,42.6425035 L133.056356,40.1824611 L131.294851,40.1824611 L131.692634,38.8143564 L135.126891,38.8143564 L133.760317,43.7630835 Z" id="Path_2" fill="#007BC7"></path>
                        <path d="M137.824752,34.549505 C138.640257,34.3886181 139.470174,34.310657 140.301624,34.3168317 C141.264,34.3168317 142.165069,34.5063649 142.748198,34.9575672 C143.32321,35.3585388 143.629216,36.0408405 143.544475,36.7330269 C143.421505,38.1743281 142.300871,39.1640736 140.996317,39.5424328 L140.977069,39.5862801 C141.60796,39.8338048 141.83002,40.5176803 141.839644,41.4490806 C141.853545,42.6714993 141.831446,43.8065771 141.960475,44.2001414 L140.186139,44.2001414 C140.112518,43.4210618 140.089896,42.638066 140.118416,41.856082 C140.151564,40.6050212 139.731327,40.1534653 138.813505,40.1534653 L137.970178,40.1534653 L136.839564,44.2008487 L135.136871,44.2008487 L137.824752,34.549505 Z M138.330891,38.8578501 L139.307881,38.8578501 C140.654851,38.8578501 141.626851,38.0427864 141.717386,36.9809052 C141.793663,36.0777935 141.103604,35.6700849 140.12697,35.6700849 C139.816137,35.6591909 139.505199,35.688552 139.20202,35.7574257 L138.330891,38.8578501 Z" id="Path_3" fill="#007BC7"></path>
                        <path d="M153.004277,38.2903112 C152.870862,40.0672157 152.086421,41.7342105 150.79901,42.976662 C149.790156,43.8818964 148.47402,44.3759347 147.113822,44.3599717 C144.538218,44.3599717 143.348436,42.511669 143.535921,40.3136492 C143.678346,38.5177094 144.486031,36.8376916 145.803208,35.5975955 C146.80397,34.720267 148.092296,34.2341137 149.427802,34.2298444 C152.092158,34.2298444 153.19497,36.0491513 153.004277,38.2903112 M147.058218,36.5003536 C146.111525,37.3585573 145.472079,38.9600424 145.364436,40.2263083 C145.237901,41.7114569 145.813901,42.9331683 147.48701,42.9331683 C148.238562,42.9184424 148.956645,42.6220683 149.49695,42.1036068 C150.427248,41.259901 151.057782,39.5855728 151.163644,38.3486563 C151.273782,37.0533946 150.934099,35.655587 149.099525,35.655587 C148.335586,35.6695214 147.605676,35.9715845 147.058218,36.5003536" id="Path_4" fill="#007BC7"></path>
                        <path d="M157.038416,34.3896747 L155.441584,40.1096181 C155.330133,40.49981 155.256492,40.8996679 155.221663,41.3037482 C155.150376,42.3069307 155.703921,42.9331683 156.725465,42.9331683 C157.953386,42.9331683 158.867287,42.1198727 159.422257,40.1248232 L161.020871,34.3896747 L162.752436,34.3896747 L161.156317,40.0954738 C160.327604,43.0498586 158.824515,44.3596181 156.380079,44.3596181 C154.500594,44.3596181 153.324356,43.3992221 153.500436,41.3323904 C153.548957,40.8756909 153.632365,40.423306 153.749941,39.9791372 L155.306495,34.3896747 L157.038416,34.3896747 Z" id="Path_5" fill="#007BC7"></path>
                        <path d="M164.328594,34.549505 C165.128852,34.3864754 165.944356,34.308595 166.761267,34.3171853 C167.679446,34.3171853 168.65501,34.5060113 169.247762,35.0155587 C169.830039,35.4869001 170.116138,36.2295935 169.999129,36.9660537 C169.908844,38.0265313 169.362438,38.9970249 168.499604,39.6294201 C167.556939,40.2653655 166.436592,40.5911945 165.29703,40.5608204 C164.986927,40.5549659 164.67746,40.5306411 164.370297,40.4879774 L163.343762,44.2008487 L161.643564,44.2008487 L164.328594,34.549505 Z M164.756317,39.0908769 C165.050454,39.1536701 165.350851,39.1829731 165.651683,39.1782178 C167.117347,39.1782178 168.157069,38.2613154 168.256515,37.0965347 C168.344198,36.062942 167.621703,35.68529 166.644356,35.68529 C166.323713,35.6734434 166.002872,35.7028007 165.689822,35.7726308 L164.756317,39.0908769 Z" id="Path_6" fill="#007BC7"></path>
                        <path d="M58.8853069,9.32496464 L51.3809109,9.32496464 L42.8977426,23.9575672 L40.8118812,9.32496464 L33.4407921,9.32496464 L36.7716832,32.4176096 C35.9269307,33.6693777 35.216198,34.490099 34.4174257,34.9635785 C32.7307723,36.0862801 30.1106139,35.7839463 28.2450297,35.2659123 L26.6453465,41.2659123 C28.5258812,41.569171 30.4253897,41.7423843 32.3301386,41.7842999 C35.4824554,41.741867 38.0138614,41.0502122 39.9222178,39.5830976 C41.2545743,38.6333098 42.8528317,36.7775813 44.6296634,33.9282178 L58.8853069,9.32496464 Z" id="Path_7" fill="#141215"></path>
                        <path d="M52.357901,25.6845827 L61.5058218,25.6845827 C61.5945743,27.4526167 62.9707723,27.8415842 64.7468911,27.799505 C66.2129109,27.799505 68.0328713,27.238331 68.5657426,25.7277228 C68.6548515,25.0795615 68.5208317,24.6050212 67.9441188,24.2602546 C66.9022118,23.854211 65.8133377,23.5786294 64.7026931,23.4398868 C61.8155644,22.9222065 59.7724752,22.6619519 58.663604,22.2309052 C56.2209505,21.1082037 55.5102178,18.7347949 56.1329109,16.3610325 C57.7311683,10.7492928 63.9481188,9.41089109 69.2771881,9.36775106 C71.986099,9.36775106 76.1606733,9.62729844 77.8476832,11.7850071 C78.513505,12.6488685 78.9137822,13.9437765 79.0916436,15.3681047 L70.3425743,15.3681047 C70.2976634,14.1594767 68.5657426,14.0293494 67.5449109,14.0731966 C66.0792475,14.0731966 64.7468911,14.4183168 64.1698218,15.7998586 C64.0429336,16.2883618 64.2611569,16.8007005 64.7026931,17.0509194 C65.1906535,17.3104668 66.389703,17.5696605 68.2994851,17.7857143 C71.2297426,18.0866337 75.4934257,18.3465347 76.7808713,21.3681047 C77.8908119,23.9572136 76.6482772,26.7199434 74.916,28.7061528 C71.8078812,31.8571429 67.278297,32.6764498 62.9258614,32.7199434 C57.7750099,32.7199434 52.2245941,31.6842291 52.357901,25.6831683" id="Path_8" fill="#141215"></path>
                        <path d="M116.969703,9.32496464 C115.326891,8.93599717 112.306812,9.2811174 110.752752,10.2312588 C109.946305,10.7324083 109.226675,11.3594002 108.621624,12.0880481 L109.375485,9.32496464 L100.450693,9.32496464 L93.9671287,32.7199434 L102.892277,32.7199434 L104.580356,26.5480905 C105.379485,23.7850071 107.022653,17.4398868 111.108119,16.9225601 C112.337086,16.7602355 113.585461,16.8184458 114.793663,17.094413 L116.969703,9.32496464 Z" id="Path_9" fill="#141215"></path>
                        <path d="M138.773228,32.8062235 L147.432475,32.8062235 L150.763723,20.8928571 C151.429545,18.4756011 152.759762,15.2386846 155.870733,15.2386846 C158.401426,15.1951909 158.356871,17.395686 157.823644,19.2089816 L154.182297,32.7199434 L163.019406,32.7199434 L167.239604,17.137553 C168.039446,14.115983 167.995248,11.9144272 166.973347,10.4473126 C165.108832,7.55516266 159.780475,7.98691655 157.026297,9.32496464 C155.335151,10.2089206 153.780089,11.3282141 152.408317,12.6488685 L153.34004,9.32496464 L145.123485,9.32496464 L138.773228,32.2033239 L138.773228,32.3762376 L138.906535,31.9451909 L138.773228,32.3762376 L138.773228,32.8062235 Z" id="Path_10" fill="#141215"></path>
                        <path d="M130.692119,9.2811174 C129.604212,9.28983131 128.519058,9.39097898 127.448554,9.5834512 C127.296576,9.58735944 127.146334,9.61652389 127.004079,9.66973126 C121.7103,10.7248237 117.240559,14.2201486 114.970099,19.0802687 C111.638851,26.2026167 115.458059,32.7630835 124.117663,32.7198049 C125.233122,32.7210571 126.346931,32.6345041 127.448554,32.4607496 C127.581149,32.4176096 127.714812,32.4176096 127.892673,32.3748232 C134.010443,31.2625852 138.955463,26.7906663 140.636673,20.8500707 C140.888767,20.0225461 141.037913,19.1675447 141.080792,18.3041018 L141.080792,17.1817539 C140.814178,12.3903819 136.907287,9.2397454 130.690693,9.28217822 M131.799564,20.9374116 C131.222851,23.0523338 130.378812,24.5632956 129.312713,25.4692362 C128.817792,25.9024672 128.264973,26.2658669 127.669901,26.5491513 C127.600948,26.588785 127.526309,26.6177599 127.448554,26.6350778 C126.908381,26.8292534 126.335251,26.917171 125.761188,26.893918 C124.517584,26.9377652 123.62899,26.4625177 123.096119,25.5148515 C122.51905,24.6082037 122.51905,23.1407355 123.051564,21.1113861 C123.584079,19.0820368 124.428475,17.6152758 125.538416,16.6651344 C126.045154,16.2264236 126.613569,15.8632329 127.225782,15.5869873 C127.304116,15.5697371 127.379271,15.5405102 127.448554,15.5003536 C127.985913,15.2919675 128.559037,15.1893982 129.135921,15.1983734 C130.335327,15.1983734 131.266693,15.6294201 131.799564,16.5774399 C132.377347,17.571075 132.334218,18.9957567 131.799564,20.9377652" id="Path_11" fill="#141215"></path>
                        <path d="M96.8977426,15.3681047 L92.0573465,15.3681047 L89.5722772,24.3893211 C89.2618218,25.3391089 89.4824554,25.2524752 89.5270099,25.5979491 C89.9711287,26.9770156 92.9912079,26.634017 93.835604,26.375884 L92.1029703,32.7195898 C87.5291881,33.281471 80.8246337,33.0654173 80.2914059,29.1803395 C80.1577426,27.4975248 80.2914059,26.2022631 81.0010693,23.612447 L83.2669307,15.4112447 L80.0686337,15.4112447 L81.7556436,9.32496464 L84.9535842,9.32496464 L86.9970297,1.7708628 L95.8337822,1.7708628 L93.7461386,9.32496464 L98.6293069,9.32496464 L96.8977426,15.3681047 Z" id="Path_12" fill="#141215"></path>
                        <path d="M163.907287,4.66301273 C162.39393,5.5941041 160.698959,6.19666946 158.933941,6.43104668 L158.711881,6.43104668 C157.005319,6.48390031 155.34104,5.89866737 154.04899,4.79137199 L151.696515,2.54632249 C150.631129,1.5102546 150.987208,0.560820368 152.495287,0.43175389 L153.783089,0.301626591 C155.293307,0.172206506 157.204871,0.992574257 158.046059,2.07142857 C158.887248,3.15028289 160.311208,3.49611033 161.243644,2.76202263 C162.175723,2.07142857 164.130772,1.38295615 165.640634,1.25141443 L166.883168,1.12234795 C168.393386,0.992574257 168.571604,1.55410184 167.327287,2.41725601 L163.907287,4.66301273 Z" id="Path_13" fill="#141215"></path>
                        <path d="M18.3414653,0.863750916 L25.0470891,0.863750916 C35.5712079,0.820721358 33.6179406,13.4257426 26.5127525,15.5834512 C31.0861782,16.7503536 33.1296238,18.6481612 32.0635248,23.4398868 C30.5982178,30.0876945 24.5142178,32.7195898 18.0310099,32.7630835 L9.50435644,32.7630835 L11.0156436,27.4112447 L16.4765941,27.4112447 C19.0072871,27.4112447 21.4948515,26.4179632 22.2490693,23.8277935 C22.7837228,21.4543847 21.3169901,19.7259547 19.185505,19.7259547 L13.1464158,19.7259547 L15.0112871,12.9922207 L18.5189703,12.9922207 C20.7402772,12.9494342 22.9601584,12.3016266 23.3151683,9.84123055 C23.6270495,7.63967468 22.1164752,6.9062942 20.2961584,6.9062942 L16.6544554,6.9062942 L18.3414653,0.863750916 Z" id="Path_14" fill="#141215"></path>
                        <path d="M0.0024950495,32.7630835 L4.176,17.5693069 L11.9919208,17.5693069 L7.81770297,32.7630835 L0.0024950495,32.7630835 Z M4.97548515,14.677157 L8.79433663,0.863861386 L16.6544554,0.863861386 L12.8352475,14.677157 L4.97548515,14.677157 Z" id="Path_15" fill="#007BC7"></path>
                        <path d="M175.299683,0.275813296 C177.784873,0.281569644 179.795631,2.28336706 179.792733,4.7488386 C179.789828,7.21431015 177.774365,9.21144468 175.289168,9.21144468 C172.803971,9.21144468 170.788508,7.21431015 170.785604,4.7488386 C170.782706,2.28336706 172.793463,0.281569644 175.278653,0.275813296 L175.299683,0.275813296 Z M175.278653,0.975601132 C173.284752,0.975601132 171.651564,2.67291372 171.651564,4.77404526 C171.62051,5.76159191 171.988408,6.72052532 172.673475,7.4376728 C173.358543,8.15482029 174.304004,8.57074949 175.299683,8.59299859 C177.314614,8.61244696 178.926059,6.91301273 178.926059,4.79420085 C178.926059,2.67538897 177.314614,0.975247525 175.299683,0.975247525 L175.278653,0.975601132 Z M174.432832,7.39285714 L173.627287,7.39285714 L173.627287,2.37553041 C174.09994,2.29739962 174.578143,2.25695909 175.057307,2.25459689 C175.608487,2.21649487 176.157961,2.34946748 176.629545,2.63507779 C176.949693,2.88264682 177.123643,3.2727866 177.092911,3.67432815 C177.093381,4.26033154 176.682772,4.76771732 176.105941,4.89391796 L176.105941,4.93422914 C176.548634,5.01414427 176.851248,5.41371994 176.951762,6.15381895 C176.993512,6.58033962 177.101731,6.99784907 177.272554,7.39144272 L176.426376,7.39144272 C176.235665,6.98901221 176.119747,6.55573297 176.084198,6.11244696 C175.963723,5.47206506 175.640436,5.23267327 174.994931,5.23267327 L174.431406,5.23267327 L174.432832,7.39285714 Z M174.432832,4.61421499 L175.017386,4.61421499 C175.683208,4.61421499 176.246376,4.37411598 176.246376,3.75424328 C176.246376,3.31506365 175.923089,2.8751768 175.017386,2.8751768 C174.821801,2.87395588 174.6264,2.88731265 174.432832,2.91513437 L174.432832,4.61421499 Z" id="Path_16" fill="#141215"></path>
                    </g>
                </g>
            </g>
        </g>
    </g>
</svg>